<svg xmlns="http://www.w3.org/2000/svg" version="1.1" xmlns:xlink="http://www.w3.org/1999/xlink" xmlns:svgjs="http://svgjs.dev/svgjs" viewBox="0 0 1422 800"><g shape-rendering="crispEdges" stroke-linejoin="round" fill="none" stroke-width="2" stroke="hsl(0, 0%, 43%)"><polygon points="1066.5,200 1066.5,0 1422,200"></polygon><polygon points="1066.5,0 1066.5,100 888.75,100"></polygon><polygon points="888.75,100 888.75,0 711,0"></polygon><polygon points="888.75,200 888.75,100 711,100"></polygon><polygon points="888.75,200 1066.5,200 888.75,100"></polygon><polygon points="977.625,200 1066.5,250 1066.5,200"></polygon><polygon points="977.625,250 888.75,200 888.75,250"></polygon><polygon points="888.75,300 977.625,250 977.625,300"></polygon><polygon points="1066.5,300 977.625,300 1066.5,250"></polygon><polygon points="888.75,200 711,200 888.75,300"></polygon><polygon points="888.75,300 888.75,400 711,300"></polygon><polygon points="1066.5,400 888.75,300 888.75,400"></polygon><polygon points="1422,200 1244.25,200 1422,300"></polygon><polygon points="1244.25,200 1244.25,300 1066.5,300"></polygon><polygon points="1244.25,350 1155.375,300 1155.375,350"></polygon><polygon points="1155.375,350 1155.375,300 1066.5,350"></polygon><polygon points="1155.375,350 1066.5,400 1155.375,400"></polygon><polygon points="1244.25,400 1155.375,350 1244.25,350"></polygon><polygon points="1422,300 1422,400 1244.25,400"></polygon><polygon points="711,0 533.25,100 533.25,0"></polygon><polygon points="533.25,100 355.5,0 355.5,100"></polygon><polygon points="533.25,200 355.5,200 533.25,100"></polygon><polygon points="533.25,200 711,100 533.25,100"></polygon><polygon points="355.5,0 0,0 0,200"></polygon><polygon points="355.5,200 177.75,300 177.75,200"></polygon><polygon points="0,300 177.75,200 0,200"></polygon><polygon points="177.75,300 0,400 0,300"></polygon><polygon points="355.5,400 355.5,300 177.75,400"></polygon><polygon points="533.25,200 711,300 711,200"></polygon><polygon points="533.25,200 533.25,300 355.5,300"></polygon><polygon points="533.25,300 533.25,350 444.375,300"></polygon><polygon points="444.375,350 355.5,300 355.5,350"></polygon><polygon points="444.375,400 444.375,350 355.5,350"></polygon><polygon points="533.25,400 444.375,350 444.375,400"></polygon><polygon points="711,400 533.25,300 533.25,400"></polygon><polygon points="533.25,500 711,400 711,500"></polygon><polygon points="355.5,500 355.5,400 533.25,500"></polygon><polygon points="533.25,600 533.25,500 355.5,600"></polygon><polygon points="622.125,500 711,550 711,500"></polygon><polygon points="533.25,550 622.125,550 622.125,500"></polygon><polygon points="622.125,600 622.125,550 533.25,550"></polygon><polygon points="711,600 711,550 622.125,550"></polygon><polygon points="355.5,500 355.5,400 177.75,500"></polygon><polygon points="177.75,500 0,500 0,400"></polygon><polygon points="177.75,600 0,600 177.75,500"></polygon><polygon points="355.5,600 177.75,500 177.75,600"></polygon><polygon points="0,600 355.5,800 0,800"></polygon><polygon points="533.25,600 711,600 711,700"></polygon><polygon points="533.25,600 533.25,700 355.5,700"></polygon><polygon points="533.25,800 355.5,800 533.25,700"></polygon><polygon points="533.25,700 711,700 711,800"></polygon><polygon points="1422,400 1244.25,400 1422,500"></polygon><polygon points="1244.25,500 1244.25,400 1066.5,500"></polygon><polygon points="1066.5,600 1244.25,500 1244.25,600"></polygon><polygon points="1422,500 1244.25,500 1422,600"></polygon><polygon points="1066.5,400 1066.5,500 888.75,500"></polygon><polygon points="888.75,450 888.75,400 799.875,400"></polygon><polygon points="799.875,450 711,400 799.875,400"></polygon><polygon points="711,500 711,450 799.875,450"></polygon><polygon points="888.75,450 799.875,500 799.875,450"></polygon><polygon points="799.875,500 799.875,550 888.75,550"></polygon><polygon points="799.875,500 711,500 799.875,550"></polygon><polygon points="711,550 799.875,600 799.875,550"></polygon><polygon points="888.75,600 888.75,550 799.875,600"></polygon><polygon points="1066.5,600 888.75,600 1066.5,500"></polygon><polygon points="1066.5,700 888.75,700 1066.5,600"></polygon><polygon points="888.75,650 799.875,600 888.75,600"></polygon><polygon points="799.875,650 799.875,600 711,650"></polygon><polygon points="799.875,700 799.875,650 711,700"></polygon><polygon points="799.875,700 888.75,650 799.875,650"></polygon><polygon points="888.75,800 888.75,700 711,800"></polygon><polygon points="1066.5,700 888.75,700 1066.5,800"></polygon><polygon points="1422,700 1244.25,700 1422,600"></polygon><polygon points="1066.5,600 1066.5,700 1244.25,600"></polygon><polygon points="1066.5,700 1244.25,800 1066.5,800"></polygon><polygon points="1422,800 1422,700 1244.25,800"></polygon></g><g fill="hsl(220, 62%, 45%)" stroke-width="3" stroke="hsl(220, 43%, 13%)"></g></svg>