<svg width="30" height="28" viewBox="0 0 30 28" fill="none" xmlns="http://www.w3.org/2000/svg">
<path d="M25.1924 19.6763H7.02344L10.853 0.192871C10.866 0.127075 10.8521 0.0645752 10.852 0H8.85223H1.5C0.947754 0 0.5 0.447754 0.5 1C0.5 1.55225 0.947754 2 1.5 2H8.45911L4.82617 20.4834C4.76855 20.7769 4.84521 21.0806 5.03516 21.3115C5.2251 21.5425 5.50879 21.6763 5.80762 21.6763H25.1924C25.7446 21.6763 26.1924 21.2285 26.1924 20.6763C26.1924 20.124 25.7446 19.6763 25.1924 19.6763Z" fill="#3C6255"/>
<path d="M18.6256 28C19.7302 28 20.6256 27.1046 20.6256 26C20.6256 24.8954 19.7302 24 18.6256 24C17.521 24 16.6256 24.8954 16.6256 26C16.6256 27.1046 17.521 28 18.6256 28Z" fill="#3C6255"/>
<path d="M11.205 28C12.3095 28 13.205 27.1046 13.205 26C13.205 24.8954 12.3095 24 11.205 24C10.1004 24 9.20496 24.8954 9.20496 26C9.20496 27.1046 10.1004 28 11.205 28Z" fill="#3C6255"/>
<path d="M9.87158 0L7.11987 14H22.5336L29.5 0H9.87158ZM20.126 8H18.376V9.75C18.376 10.3022 17.9287 10.75 17.376 10.75C16.8232 10.75 16.376 10.3022 16.376 9.75V8H14.626C14.0732 8 13.626 7.55225 13.626 7C13.626 6.44775 14.0732 6 14.626 6H16.376V4.25C16.376 3.69775 16.8232 3.25 17.376 3.25C17.9287 3.25 18.376 3.69775 18.376 4.25V6H20.126C20.6787 6 21.126 6.44775 21.126 7C21.126 7.55225 20.6787 8 20.126 8Z" fill="#3C6255"/>
</svg>
