<svg width="722" height="800" viewBox="0 0 722 800" fill="none" xmlns="http://www.w3.org/2000/svg">
<path d="M332.159 503.788C333.538 517.118 344.792 527.042 357.906 527.042C358.797 527.042 359.695 526.997 360.601 526.904C374.837 525.432 385.186 512.699 383.714 498.463L371.762 382.818C370.29 368.582 357.55 358.247 343.32 359.705C329.084 361.177 318.735 373.91 320.207 388.146L332.159 503.788Z" fill="#3C6255"/>
<path d="M494.341 526.904C495.247 526.997 496.145 527.042 497.037 527.042C510.153 527.042 521.404 517.118 522.783 503.788L534.731 388.143C536.203 373.903 525.854 361.17 511.618 359.702C497.372 358.247 484.646 368.582 483.174 382.815L471.225 498.459C469.753 512.699 480.102 525.432 494.341 526.904Z" fill="#3C6255"/>
<path d="M293.677 639.549C249.445 639.549 213.46 675.534 213.46 719.766C213.46 764.009 249.445 800.003 293.677 800.003C337.909 800.003 373.897 764.009 373.897 719.766C373.897 675.534 337.909 639.549 293.677 639.549ZM293.677 748.169C278.024 748.169 265.291 735.426 265.291 719.763C265.291 704.11 278.024 691.377 293.677 691.377C309.33 691.377 322.067 704.11 322.067 719.763C322.067 735.426 309.33 748.169 293.677 748.169Z" fill="#3C6255"/>
<path d="M561.265 639.549C517.033 639.549 481.045 675.534 481.045 719.766C481.045 764.009 517.029 800.003 561.265 800.003C605.501 800.003 641.492 764.009 641.492 719.766C641.492 675.534 605.501 639.549 561.265 639.549ZM561.265 748.169C545.612 748.169 532.876 735.426 532.876 719.763C532.876 704.11 545.612 691.377 561.265 691.377C576.921 691.377 589.661 704.11 589.661 719.763C589.661 735.426 576.925 748.169 561.265 748.169Z" fill="#3C6255"/>
<path d="M716.277 273.251C711.37 266.904 703.8 263.186 695.776 263.186H179.214L157.521 179.77C154.55 168.35 144.239 160.378 132.439 160.378H26.2237C11.9115 160.378 0.30835 171.981 0.30835 186.293C0.30835 200.606 11.9115 212.209 26.2237 212.209H112.401L133.918 294.951C134.025 295.414 134.146 295.874 134.277 296.327L214.293 604.014C217.265 615.434 227.576 623.406 239.376 623.406H615.577C627.377 623.406 637.688 615.434 640.659 604.014L720.859 295.622C722.877 287.864 721.184 279.602 716.277 273.251ZM595.539 571.582H259.413L192.694 315.02H662.262L595.539 571.582Z" fill="#3C6255"/>
<path d="M325.736 182.62C330.795 187.676 337.426 190.205 344.057 190.205C350.691 190.205 357.325 187.672 362.387 182.61C372.505 172.486 372.501 156.076 362.377 145.959L280.875 64.4947C270.751 54.3773 254.344 54.3808 244.224 64.5016C234.106 74.6258 234.11 91.0354 244.231 101.153L325.736 182.62Z" fill="#3C6255"/>
<path d="M511.007 190.201C517.641 190.201 524.279 187.669 529.341 182.603L610.722 101.149C620.839 91.0251 620.829 74.6155 610.705 64.5016C600.58 54.3842 584.171 54.3946 574.057 64.5189L492.676 145.973C482.558 156.097 482.569 172.506 492.693 182.624C497.752 187.676 504.379 190.201 511.007 190.201Z" fill="#3C6255"/>
<path d="M427.497 166.933H427.504C441.813 166.933 453.416 155.333 453.419 141.024L453.447 25.9223C453.45 11.6101 441.851 0.00345538 427.539 0H427.535C413.223 0 401.62 11.5997 401.616 25.9084L401.589 141.011C401.585 155.323 413.185 166.929 427.497 166.933Z" fill="#3C6255"/>
</svg>
