<svg width="20" height="20" viewBox="0 0 20 20" fill="none" xmlns="http://www.w3.org/2000/svg">
<g clip-path="url(#clip0_1_2)">
<path d="M17.16 19H2.84C2.72583 19.0016 2.61256 18.9796 2.50727 18.9354C2.40198 18.8912 2.30695 18.8258 2.2281 18.7432C2.14926 18.6606 2.08831 18.5626 2.04906 18.4554C2.00981 18.3482 1.99311 18.234 2 18.12L2.74 4.62C2.75028 4.40688 2.84225 4.2059 2.9968 4.0588C3.15136 3.91169 3.35663 3.82975 3.57 3.83H16.42C16.6334 3.82975 16.8386 3.91169 16.9932 4.0588C17.1478 4.2059 17.2397 4.40688 17.25 4.62L18 18.12C18.0069 18.234 17.9902 18.3482 17.9509 18.4554C17.9117 18.5626 17.8507 18.6606 17.7719 18.7432C17.6931 18.8258 17.598 18.8912 17.4927 18.9354C17.3874 18.9796 17.2742 19.0016 17.16 19Z" fill="#3C6255"/>
<path d="M6.39 6.82V8.82H13.61V4.41C13.61 3.50561 13.2507 2.63826 12.6112 1.99877C11.9717 1.35927 11.1044 1 10.2 1H9.8C8.89561 1 8.02826 1.35927 7.38877 1.99877C6.74927 2.63826 6.39 3.50561 6.39 4.41V4.61V6.82Z" fill="#A6BB8D"/>
<path d="M13.61 6.82V4.41C13.6104 4.2151 13.5903 4.0207 13.55 3.83H6.45C6.40973 4.0207 6.38962 4.2151 6.39 4.41V4.61V8.82H13.61V6.82Z" fill="#190D15"/>
</g>
<defs>
<clipPath id="clip0_1_2">
<rect width="20" height="20" fill="white"/>
</clipPath>
</defs>
</svg>
