<?xml version="1.0" ?><!DOCTYPE svg  PUBLIC '-//W3C//DTD SVG 1.1//EN'  'http://www.w3.org/Graphics/SVG/1.1/DTD/svg11.dtd'><svg enable-background="new 0 0 64 64" height="64px" id="Layer_1" version="1.1" viewBox="0 0 64 64" width="64px" xml:space="preserve" xmlns="http://www.w3.org/2000/svg" xmlns:xlink="http://www.w3.org/1999/xlink"><g><g><g><path clip-rule="evenodd" d="M32,46c3.8-3.4,6.2-8.4,6.2-14S35.8,21.5,32,18     c-3.3-3-7.8-4.9-12.6-4.9C9,13.1,0.5,21.6,0.5,32c0,10.4,8.5,18.8,18.9,18.8C24.2,50.9,28.7,49,32,46L32,46z" fill="#07A9E2" fill-rule="evenodd"/></g></g><g><g><path clip-rule="evenodd" d="M0.5,32c0,10.4,8.5,18.8,18.9,18.8c4.9,0,9.3-1.8,12.6-4.9l0,0     c3.8-3.4,6.2-8.4,6.2-14S35.8,21.5,32,18c-3.3-3-7.8-4.9-12.6-4.9" fill="#009DDD" fill-rule="evenodd"/></g></g><g><path clip-rule="evenodd" d="M32,18c-3.3-3-7.8-4.9-12.6-4.9c-0.3,0-0.6,0-0.9,0    C12.6,17.4,8.8,24.3,8.8,32s3.8,14.6,9.6,18.8c0.3,0,0.6,0,0.9,0c4.9,0,9.3-1.8,12.6-4.9c3.8-3.4,6.2-8.4,6.2-14S35.8,21.5,32,18z    " fill="#0284CC" fill-rule="evenodd"/></g><g><g><path clip-rule="evenodd" d="M44.7,13.1c-4.9,0-9.3,1.8-12.7,4.9c-0.7,0.6-1.3,1.3-1.9,2h3.8     c0.5,0.6,1,1.3,1.4,2h-6.7c-0.4,0.7-0.8,1.3-1.1,2h8.9c0.3,0.7,0.6,1.3,0.8,2H26.8c-0.2,0.7-0.4,1.3-0.6,2h11.6     c0.3,1.3,0.4,2.6,0.4,4c0,2.1-0.3,4.1-1,6H26.8c0.2,0.7,0.5,1.3,0.8,2h8.9c-0.3,0.7-0.7,1.4-1.1,2h-6.7c0.4,0.7,0.9,1.4,1.4,2     h3.8c-0.6,0.7-1.2,1.4-1.9,2c3.4,3,7.8,4.9,12.7,4.9c10.4,0,18.8-8.4,18.8-18.8C63.5,21.6,55.1,13.1,44.7,13.1L44.7,13.1z" fill="#FF2957" fill-rule="evenodd"/></g></g><g><g><path clip-rule="evenodd" d="M44.7,13.1L44.7,13.1c-4.9,0-9.3,1.8-12.7,4.9     c-0.7,0.6-1.3,1.3-1.9,2h3.8c0.5,0.6,1,1.3,1.4,2h-6.7c-0.4,0.7-0.8,1.3-1.1,2h8.9c0.3,0.7,0.6,1.3,0.8,2H26.8     c-0.2,0.7-0.4,1.3-0.6,2h11.6c0.3,1.3,0.4,2.6,0.4,4c0,2.1-0.3,4.1-1,6H26.8c0.2,0.7,0.5,1.3,0.8,2h8.9c-0.3,0.7-0.7,1.4-1.1,2     h-6.7c0.4,0.7,0.9,1.4,1.4,2h3.8c-0.6,0.7-1.2,1.4-1.9,2c3.4,3,7.8,4.9,12.7,4.9c10.4,0,18.8-8.4,18.8-18.8" fill="#ED1C2E" fill-rule="evenodd"/></g></g><g><g><path clip-rule="evenodd" d="M32,46c3.8-3.4,6.2-8.4,6.2-14S35.8,21.5,32,18V46L32,46z" fill="#0466B5" fill-rule="evenodd"/></g></g><g><g><path clip-rule="evenodd" d="M57,36.1c0-0.3,0.3-0.6,0.6-0.6c0.3,0,0.6,0.3,0.6,0.6     c0,0.3-0.3,0.6-0.6,0.6C57.3,36.7,57,36.4,57,36.1L57,36.1z M57.6,36.6c0.3,0,0.4-0.2,0.4-0.5c0-0.3-0.2-0.4-0.4-0.4     c-0.3,0-0.5,0.2-0.5,0.4C57.1,36.3,57.4,36.6,57.6,36.6L57.6,36.6z M57.6,36.3h-0.1v-0.5h0.2c0.1,0,0.1,0,0.1,0     c0,0,0.1,0.1,0.1,0.1c0,0.1,0,0.1-0.1,0.1l0.1,0.2h-0.1l-0.1-0.2h-0.1V36.3L57.6,36.3z M57.6,36L57.6,36c0.1,0,0.1,0,0.1,0     c0,0,0,0,0-0.1v0c0,0-0.1,0-0.1,0h0V36L57.6,36z" fill="#FFFFFF" fill-rule="evenodd"/></g></g><g><path clip-rule="evenodd" d="M32,18c-0.7,0.6-1.3,1.3-1.9,2h3.8c0.5,0.6,1,1.3,1.4,2h-6.7    c-0.4,0.7-0.8,1.3-1.1,2h8.9c0.3,0.7,0.6,1.3,0.8,2H26.8c-0.2,0.7-0.4,1.3-0.6,2h11.6c0.3,1.3,0.4,2.6,0.4,4c0,2.1-0.3,4.1-1,6    H26.8c0.2,0.7,0.5,1.3,0.8,2h8.9c-0.3,0.7-0.7,1.4-1.1,2h-6.7c0.4,0.7,0.9,1.4,1.4,2h3.8c-0.6,0.7-1.2,1.4-1.9,2    c3.4,3,7.8,4.9,12.7,4.9c0.3,0,0.6,0,0.9,0c5.8-4.2,9.6-11.1,9.6-18.8c0-7.7-3.8-14.6-9.6-18.8c-0.3,0-0.6,0-0.9,0    C39.8,13.1,35.4,15,32,18z" fill="#D1094B" fill-rule="evenodd"/></g><g><g><polygon clip-rule="evenodd" fill="#FFFFFF" fill-rule="evenodd" points="17,36.7 14.6,36.7 16,29.4 12.8,36.7 10.7,36.7      10.3,29.4 8.9,36.7 6.8,36.7 8.6,27.1 12.3,27.1 12.5,33.1 15.1,27.1 18.9,27.1 17,36.7    "/></g></g><g><path clip-rule="evenodd" d="M14.7,32.5l1.4-3.1l-1.1,5.8c0.1,0.5,0.2,1.1,0.4,1.6H17l1.8-9.6    h-3.5c-0.4,1.5-0.7,3.2-0.7,4.9C14.7,32.2,14.7,32.3,14.7,32.5z" fill="#DCE5E5" fill-rule="evenodd"/></g><g><g><path clip-rule="evenodd" d="M43.2,36.6c-0.7,0.2-1.1,0.3-1.7,0.3c-1.2,0-1.8-0.6-1.8-1.7     c0-0.2,0-0.4,0.1-0.7l0.1-0.8l0.1-0.6l1.1-5.9h2.3l-0.3,1.8h1.2L44,30.8h-1.2L42.2,34c0,0.1-0.1,0.3-0.1,0.3     c0,0.4,0.3,0.6,0.8,0.6c0.3,0,0.5,0,0.6-0.1L43.2,36.6L43.2,36.6z" fill="#DCE5E5" fill-rule="evenodd"/></g></g><g><g><path clip-rule="evenodd" d="M50.1,29c-0.2-0.1-0.2-0.1-0.3-0.1c-0.1,0-0.2,0-0.2-0.1     c-0.1,0-0.1,0-0.3,0c-0.8,0-1.3,0.3-2,1.3l0.2-1.2h-2.1L44,36.7h2.4c0.8-4.8,1.2-5.6,2.3-5.6c0.1,0,0.2,0,0.3,0l0.3,0.1L50.1,29     L50.1,29z" fill="#DCE5E5" fill-rule="evenodd"/></g></g><g><g><path clip-rule="evenodd" d="M33.9,31.4c0,1,0.6,1.7,1.8,2.1c1,0.4,1.1,0.5,1.1,0.9     c0,0.5-0.4,0.7-1.4,0.7c-0.7,0-1.4-0.1-2.1-0.3L33,36.6h0.1l0.4,0.1c0.1,0,0.4,0,0.6,0c0.6,0.1,1,0.1,1.3,0.1     c2.5,0,3.7-0.8,3.7-2.6c0-1.1-0.5-1.7-1.7-2.2c-1-0.4-1.1-0.5-1.1-0.8c0-0.4,0.4-0.6,1.2-0.6c0.4,0,1.1,0,1.7,0.1l0.3-1.8     c-0.6-0.1-1.5-0.1-2.1-0.1C34.8,28.8,33.9,30,33.9,31.4L33.9,31.4z" fill="#DCE5E5" fill-rule="evenodd"/></g></g><g><g><path clip-rule="evenodd" d="M24.6,36.7h-1.9l0-0.8c-0.6,0.6-1.4,0.9-2.5,0.9     c-1.3,0-2.1-0.9-2.1-2.1c0-1.9,1.5-3,4.1-3c0.3,0,0.6,0,1,0c0.1-0.3,0.1-0.4,0.1-0.5c0-0.5-0.4-0.7-1.5-0.7     c-0.7,0-1.4,0.1-1.9,0.2l-0.3,0.1l-0.2,0l0.3-1.7c1.2-0.3,1.9-0.4,2.8-0.4c2,0,3.1,0.8,3.1,2.3c0,0.4,0,0.7-0.2,1.6l-0.5,2.8     l-0.1,0.5l-0.1,0.4l0,0.3L24.6,36.7L24.6,36.7z M22.9,33.2c-0.3,0-0.4,0-0.5,0c-1.3,0-2,0.4-2,1.2c0,0.5,0.3,0.8,0.8,0.8     C22.2,35.2,22.9,34.4,22.9,33.2L22.9,33.2z" fill="#DCE5E5" fill-rule="evenodd"/></g></g><g><g><path clip-rule="evenodd" d="M32.3,36.5c-0.8,0.2-1.6,0.3-2.4,0.3c-2.6,0-4-1.2-4-3.5     c0-2.7,1.7-4.6,4.1-4.6c1.9,0,3.1,1.1,3.1,2.8c0,0.6-0.1,1.1-0.3,1.9h-4.7c0,0.1,0,0.2,0,0.3c0,0.9,0.7,1.4,2,1.4     c0.9,0,1.6-0.1,2.4-0.5L32.3,36.5L32.3,36.5z M31.1,31.9c0-0.1,0-0.3,0-0.4c0-0.6-0.4-1-1.1-1c-0.7,0-1.3,0.5-1.5,1.4H31.1     L31.1,31.9z" fill="#DCE5E5" fill-rule="evenodd"/></g></g><g><g><path clip-rule="evenodd" d="M57.4,33.2c-0.4,2.6-2.2,3.7-4.6,3.7c-2.6,0-3.7-1.6-3.7-3.6     c0-2.7,1.8-4.6,4.6-4.6c2.4,0,3.7,1.6,3.7,3.5C57.4,32.7,57.4,32.7,57.4,33.2L57.4,33.2z M54.9,32.2c0-0.8-0.3-1.5-1.3-1.5     c-1.2,0-1.9,1.4-1.9,2.7c0,1,0.5,1.7,1.3,1.7c0.5,0,1.6-0.7,1.8-1.9C54.9,32.8,54.9,32.5,54.9,32.2L54.9,32.2z" fill="#FFFFFF" fill-rule="evenodd"/></g></g><g><path clip-rule="evenodd" d="M49.2,34.2c0.1-0.7,0.2-1.5,0.2-2.2c0-0.1,0-0.2,0-0.2    c-0.1,0.5-0.2,1-0.2,1.6C49.1,33.6,49.1,33.9,49.2,34.2z" fill="#FFFFFF" fill-rule="evenodd"/></g></g></svg>